<svg width="24" height="24" viewBox="0 0 24 24" fill="none" xmlns="http://www.w3.org/2000/svg">
<path fill-rule="evenodd" clip-rule="evenodd" d="M4 22V2H20V11.2322C19.1025 10.7644 18.0821 10.5 17 10.5C13.4101 10.5 10.5 13.4101 10.5 17C10.5 19.0104 11.4127 20.8077 12.8464 22H4ZM7 5H15V6.5H7V5ZM7 9H11V10.5H7V9Z" fill="#0F172B"/>
<path fill-rule="evenodd" clip-rule="evenodd" d="M17 12C14.2386 12 12 14.2386 12 17C12 19.7614 14.2386 22 17 22C18.3805 22 19.6315 21.4395 20.5355 20.5355C21.4395 19.6315 22 18.3805 22 17C22 14.2386 19.7614 12 17 12ZM13.5 17C13.5 15.3244 14.6774 13.9239 16.25 13.5805V17.3107L18.8875 19.9481C18.3428 20.2977 17.6954 20.5 17 20.5C15.067 20.5 13.5 18.933 13.5 17ZM17.75 16.6893V13.5805C19.3226 13.9239 20.5 15.3244 20.5 17C20.5 17.6954 20.2977 18.3428 19.9481 18.8875L17.75 16.6893Z" fill="#0F172B"/>
</svg>
