<svg width="24" height="24" viewBox="0 0 24 24" fill="none" xmlns="http://www.w3.org/2000/svg">
<path d="M20.5 12C20.5 7.30558 16.6944 3.5 12 3.5C7.30558 3.5 3.5 7.30558 3.5 12C3.5 16.6944 7.30558 20.5 12 20.5C16.6944 20.5 20.5 16.6944 20.5 12ZM22 12C22 17.5228 17.5228 22 12 22C6.47715 22 2 17.5228 2 12C2 6.47715 6.47715 2 12 2C17.5228 2 22 6.47715 22 12Z" fill="#0F172B"/>
<path d="M15.25 11.75C15.6642 11.75 16 12.0858 16 12.5C16 12.9142 15.6642 13.25 15.25 13.25H8.75C8.33579 13.25 8 12.9142 8 12.5C8 12.0858 8.33579 11.75 8.75 11.75H15.25Z" fill="#0F172B"/>
<path d="M16.75 8.5C17.1642 8.5 17.5 8.83579 17.5 9.25C17.5 9.66421 17.1642 10 16.75 10L7.25 10C6.83579 10 6.5 9.66421 6.5 9.25C6.5 8.83579 6.83579 8.5 7.25 8.5L16.75 8.5Z" fill="#0F172B"/>
<path d="M13.75 15C14.1642 15 14.5 15.3358 14.5 15.75C14.5 16.1642 14.1642 16.5 13.75 16.5H10.25C9.83579 16.5 9.5 16.1642 9.5 15.75C9.5 15.3358 9.83579 15 10.25 15H13.75Z" fill="#0F172B"/>
</svg>
