<svg width="24" height="24" viewBox="0 0 24 24" fill="none" xmlns="http://www.w3.org/2000/svg">
<path d="M5.79288 18.7929C6.1834 18.4024 6.81642 18.4024 7.20694 18.7929C7.59743 19.1835 7.59745 19.8165 7.20694 20.207L5.70694 21.707C5.31642 22.0975 4.68339 22.0975 4.29288 21.707C3.90236 21.3165 3.90238 20.6835 4.29288 20.2929L5.79288 18.7929ZM13.9999 15C13.9999 14.6212 14.2139 14.2748 14.5526 14.1054C16.4484 13.1576 17.8866 12.0242 18.8173 10.3818C19.6681 8.88036 20.1502 6.85191 20.0478 3.95114C17.1475 3.84887 15.1194 4.33187 13.6181 5.18259C11.9756 6.11329 10.8423 7.55153 9.89444 9.44724C9.72504 9.78598 9.37866 9.99997 8.99991 9.99997H7.37979C6.79597 9.99997 6.2412 10.255 5.86124 10.6982L4.6796 12.0752C4.93806 12.1831 5.22184 12.3062 5.51944 12.4433C6.69476 12.9847 8.20881 13.7948 9.20694 14.7929C10.2051 15.7911 11.0152 17.3051 11.5566 18.4804C11.6933 18.7773 11.816 19.0604 11.9237 19.3183L13.3017 18.1386C13.7449 17.7587 13.9999 17.2039 13.9999 16.6201V15ZM3.79288 16.7929C4.1834 16.4024 4.81642 16.4024 5.20694 16.7929C5.59743 17.1835 5.59745 17.8165 5.20694 18.207L2.70694 20.707C2.31642 21.0975 1.68339 21.0975 1.29288 20.707C0.902364 20.3165 0.902384 19.6835 1.29288 19.2929L3.79288 16.7929ZM15.9999 8.49997C15.9999 8.22383 15.7761 7.99997 15.4999 7.99997C15.2238 7.99997 14.9999 8.22383 14.9999 8.49997C14.9999 8.77608 15.2238 8.99997 15.4999 8.99997C15.776 8.99997 15.9999 8.77608 15.9999 8.49997ZM15.9999 16.6201C15.9999 17.7877 15.4899 18.8973 14.6034 19.6572L12.1503 21.7588L11.4999 20.999V21L12.1503 21.7588C11.8979 21.975 11.5547 22.0521 11.2343 21.9638C10.9539 21.8866 10.7229 21.6921 10.5985 21.4336L10.5526 21.3193L10.5517 21.3183C10.5513 21.3172 10.5506 21.3152 10.5497 21.3125C10.5478 21.3068 10.5452 21.2975 10.5409 21.2851C10.5322 21.2601 10.5187 21.2216 10.5009 21.1718C10.4651 21.0718 10.4108 20.9245 10.3407 20.7422C10.2004 20.3767 9.9958 19.8724 9.74014 19.3174C9.21405 18.1752 8.52473 16.9389 7.79288 16.207C7.06101 15.4751 5.82468 14.7858 4.68253 14.2597C4.12751 14.0041 3.62315 13.7995 3.25772 13.6592C3.07534 13.5891 2.92807 13.5348 2.82803 13.499C2.77821 13.4812 2.73978 13.4676 2.71475 13.459C2.70244 13.4547 2.69314 13.4521 2.68741 13.4502C2.68476 13.4493 2.68272 13.4486 2.68155 13.4482C2.36667 13.3421 2.12434 13.0859 2.03604 12.7656C1.94783 12.4451 2.02483 12.1019 2.24112 11.8496L4.34268 9.39645C5.10261 8.50997 6.21216 7.99997 7.37979 7.99997H8.39444C9.40712 6.13218 10.7113 4.53062 12.6317 3.44235C14.6015 2.32615 17.1113 1.80986 20.4023 1.96286L21.0712 2.0029L21.163 2.01364C21.6152 2.08807 21.9638 2.46362 21.997 2.92868C22.2557 6.55137 21.7482 9.267 20.5575 11.3681C19.4693 13.2884 17.8675 14.5918 15.9999 15.6045V16.6201ZM17.9999 8.49997C17.9999 9.88065 16.8806 11 15.4999 11C14.1192 11 12.9999 9.88065 12.9999 8.49997C12.9999 7.11926 14.1192 5.99997 15.4999 5.99997C16.8806 5.99997 17.9999 7.11926 17.9999 8.49997Z" fill="#0F172B"/>
</svg>
